<?xml version="1.0" standalone="no"?>
<!DOCTYPE svg PUBLIC "-//W3C//DTD SVG 20010904//EN"
 "http://www.w3.org/TR/2001/REC-SVG-20010904/DTD/svg10.dtd">
<svg version="1.0" xmlns="http://www.w3.org/2000/svg"
 width="260.000000pt" height="260.000000pt" viewBox="0 0 260.000000 260.000000"
 preserveAspectRatio="xMidYMid meet">
<metadata>
Created by potrace 1.11, written by Peter Selinger 2001-2013
</metadata>
<g transform="translate(0.000000,260.000000) scale(0.100000,-0.100000)"
fill="#000000" stroke="none">
<path d="M1790 2537 c0 -22 -44 -99 -74 -132 l-35 -36 -57 36 c-63 41 -180 91
-234 100 -19 3 -52 10 -73 15 -37 8 -222 6 -262 -3 -195 -45 -330 -138 -428
-293 -80 -127 -93 -344 -31 -501 36 -91 102 -191 171 -261 96 -96 117 -108
608 -360 189 -97 346 -226 401 -332 26 -49 29 -65 29 -145 0 -80 -4 -97 -31
-155 -57 -121 -175 -211 -319 -244 -77 -17 -249 -15 -320 4 -22 6 -51 13 -65
16 -49 10 -166 75 -219 121 -123 107 -217 292 -237 463 -10 86 -8 83 -47 84
-20 1 -38 -3 -40 -9 -2 -5 -3 -199 -3 -430 l1 -420 39 0 c35 0 39 3 54 40 18
48 81 135 98 135 6 0 74 -26 150 -58 166 -70 228 -91 314 -108 86 -16 268 -11
349 10 204 54 380 191 464 360 21 41 39 83 41 93 2 10 9 38 16 61 18 69 20
209 5 290 -32 166 -127 301 -285 406 -36 24 -182 103 -325 176 -435 223 -540
296 -595 416 -60 130 -40 268 52 369 81 89 180 126 322 120 221 -8 368 -100
463 -288 40 -79 81 -217 88 -300 9 -86 9 -87 55 -87 25 0 40 5 41 13 0 16 0
761 0 808 -1 35 -2 36 -41 35 -22 0 -40 -5 -40 -9z"/>
</g>
</svg>
